<svg width="800" height="800" viewBox="0 0 800 800" fill="none" xmlns="http://www.w3.org/2000/svg">
<g id="face">
<path id="mouth" d="M300 533.333C328.346 554.343 362.82 566.667 400 566.667C437.18 566.667 471.653 554.343 500 533.333" stroke="#1C274C" stroke-width="50" stroke-linecap="round"/>
<path id="eye2" d="M500 366.67C518.409 366.67 533.333 351.745 533.333 333.335C533.333 314.925 518.409 300 500 300C481.59 300 466.667 314.925 466.667 333.335C466.667 351.745 481.59 366.67 500 366.67Z" fill="#1C274C"/>
<path id="pupil2" d="M500 342.89C505.278 342.89 509.556 338.611 509.556 333.333C509.556 328.055 505.278 323.777 500 323.777C494.722 323.777 490.444 328.055 490.444 333.333C490.444 338.611 494.722 342.89 500 342.89Z" fill="white"/>
<path id="eye1" d="M300 366.67C318.41 366.67 333.333 351.745 333.333 333.335C333.333 314.925 318.41 300 300 300C281.591 300 266.667 314.925 266.667 333.335C266.667 351.745 281.591 366.67 300 366.67Z" fill="#1C274C"/>
<path id="pupil1" d="M300 342.892C305.278 342.892 309.556 338.613 309.556 333.335C309.556 328.057 305.278 323.778 300 323.778C294.722 323.778 290.444 328.057 290.444 333.335C290.444 338.613 294.722 342.892 300 342.892Z" fill="white"/>
<path id="corner4" d="M733.333 466.667C733.333 592.373 733.333 655.23 694.28 694.28C655.23 733.333 592.373 733.333 466.667 733.333" stroke="#1C274C" stroke-width="50" stroke-linecap="round"/>
<path id="corner3" d="M333.333 733.333C207.625 733.333 144.772 733.333 105.719 694.28C66.6667 655.23 66.6667 592.373 66.6667 466.667" stroke="#1C274C" stroke-width="50" stroke-linecap="round"/>
<path id="corner2" d="M333.333 66.6667C207.625 66.6667 144.772 66.6667 105.719 105.719C66.6667 144.772 66.6667 207.625 66.6667 333.333" stroke="#1C274C" stroke-width="50" stroke-linecap="round"/>
<path id="corner1" d="M466.667 66.6667C592.373 66.6667 655.23 66.6667 694.28 105.719C733.333 144.772 733.333 207.625 733.333 333.333" stroke="#1C274C" stroke-width="50" stroke-linecap="round"/>
</g>
</svg>
